{"title":"Game of Death-AC3-DVDRip 2010 TBS","uid":6030444,"size":1461382745,"categoryP":"video","categoryS":"movies","magnet":"?xt=urn:btih:0c8f447a84b3ae6feea696f67052dd4453029b9c&amp;dn=Game+of+Death-AC3-DVDRip+2010+TBS&amp;tr=udp%3A%2F%2Ftracker.openbittorrent.com%3A80&amp;tr=udp%3A%2F%2Fopen.demonii.com%3A1337&amp;tr=udp%3A%2F%2Ftracker.coppersurfer.tk%3A6969&amp;tr=udp%3A%2F%2Fexodus.desync.com%3A6969","seeders":0,"leechers":0,"uploader":"FatFreddy30","files":-1,"time":1292025616,"description":"Secret Ops agent Marcus is sent to Detroit to take out an arms dealer and the head of the hedge fund that is financing him. His CIA backup has other plans and turns on him and it's a fight to survive in a hospital.\n &lt;a href=&quot;\nhttp://www.imdb.com/title/tt1446072/&quot; rel=&quot;nofollow&quot; target=&quot;_NEW&quot;&gt;\nhttp://www.imdb.com/title/tt1446072/&lt;/a&gt;\n\nSubs: Dutch srt.\n\nDe bodyguard van een diplomaat raakt samen met nog een paar andere mensen gewond tijdens een moordaanslag. Ze worden allemaal naar hetzelfde ziekenhuis gebracht. De bodyguard besluit samen met een zuster de diplomaat te beschermen tegen een groep genadeloze huurmoordenaars.\n &lt;a href=&quot;\nhttp://www.moviemeter.nl/film/61479&quot; rel=&quot;nofollow&quot; target=&quot;_NEW&quot;&gt;\nhttp://www.moviemeter.nl/film/61479&lt;/a&gt;\n\nOndertitels: Nederlands (srt).\n\nGeneral\nComplete name                    : Game of Death-AC3-DVDRip 2010 TBS\\Game of Death-AC3-DVDRip 2010.avi\nFormat                           : AVI\nFormat/Info                      : Audio Video Interleave\nFile size                        : 1.36 GiB\nDuration                         : 1h 22mn\nOverall bit rate                 : 2 365 Kbps\nWriting application              : VirtualDubMod 1.5.4.1 (build 2178/release)\nWriting library                  : VirtualDubMod build 2178/release\n\nVideo\nID                               : 0\nFormat                           : MPEG-4 Visual\nFormat profile                   : Simple@L3\nFormat settings, BVOP            : No\nFormat settings, QPel            : No\nFormat settings, GMC             : No warppoints\nFormat settings, Matrix          : Default (H.263)\nCodec ID                         : XVID\nCodec ID/Hint                    : XviD\nDuration                         : 1h 22mn\nBit rate                         : 1 907 Kbps\nWidth                            : 720 pixels\nHeight                           : 304 pixels\nDisplay aspect ratio             : 2.35:1\nFrame rate                       : 25.000 fps\nResolution                       : 8 bits\nColorimetry                      : 4:2:0\nScan type                        : Progressive\nBits/(Pixel*Frame)               : 0.348\nStream size                      : 1.10 GiB (81%)\nWriting library                  : XviD 1.1.2 (UTC 2006-11-01)\n\nAudio\nID                               : 1\nFormat                           : AC-3\nFormat/Info                      : Audio Coding 3\nCodec ID                         : 2000\nDuration                         : 1h 22mn\nBit rate mode                    : Constant\nBit rate                         : 448 Kbps\nChannel(s)                       : 6 channels\nChannel positions                : Front: L C R, Surround: L R, LFE\nSampling rate                    : 48.0 KHz\nStream size                      : 264 MiB (19%)\nAlignment                        : Split accross interleaves\nInterleave, duration             : 40 ms (1.00 video frame)\nInterleave, preload duration     : 500 ms\n\nThanks to Just4fun-Team.\n\nBlackbeard  TBS.","torrent":{"xt":"urn:btih:0c8f447a84b3ae6feea696f67052dd4453029b9c","amp;dn":"Game+of+Death-AC3-DVDRip+2010+TBS","amp;tr":["udp%3A%2F%2Ftracker.openbittorrent.com%3A80","udp%3A%2F%2Fopen.demonii.com%3A1337","udp%3A%2F%2Ftracker.coppersurfer.tk%3A6969","udp%3A%2F%2Fexodus.desync.com%3A6969"],"infoHash":"0c8f447a84b3ae6feea696f67052dd4453029b9c","infoHashBuffer":{"type":"Buffer","data":[12,143,68,122,132,179,174,111,238,166,150,246,112,82,221,68,83,2,155,156]},"announce":[],"urlList":[]}}